<?xml version="1.0" encoding="UTF-8"?>
<svg width="291px" height="54px" viewBox="0 0 291 54" version="1.1" xmlns="http://www.w3.org/2000/svg" xmlns:xlink="http://www.w3.org/1999/xlink">
    <title>MarjaneMAll-LogoTest_Plan de travail 1 Copy 3@1x</title>
    <g id="Page-1" stroke="none" stroke-width="1" fill="none" fill-rule="evenodd">
        <g id="Artboard-5-Copy-41" transform="translate(-87.000000, -24.000000)">
            <g id="Group-13" transform="translate(0.000000, -13.000000)">
                <g id="Group-11" transform="translate(19.000000, 37.225000)">
                    <g id="Group" transform="translate(68.270922, 0.000000)">
                        <polygon id="Rectangle-path" fill="#FFFFFF" fill-rule="nonzero" points="270.136312 4.572 279.203168 4.572 279.203168 42.912 270.136312 42.912"></polygon>
                        <polygon id="Rectangle-path" fill="#FFFFFF" fill-rule="nonzero" points="281.253144 4.572 290.32 4.572 290.32 42.912 281.253144 42.912"></polygon>
                        <path d="M64.2175414,39.42 L64.0730496,39.42 C62.1946572,42.345 59.8466667,43.587 56.3337116,43.587 C49.8947991,43.587 44.0338534,38.268 44.0338534,29.601 C44.0338534,20.934 49.6058156,15.57 56.3337116,15.57 C59.6028369,15.57 62.1495035,16.767 63.9285579,19.26 L64.0730496,19.26 L64.0730496,16.29 L73.0134752,16.29 L73.0134752,42.921 L64.2175414,42.921 L64.2175414,39.42 Z M64.0730496,29.556 C64.0730496,25.92 61.7160284,23.571 58.5462411,23.571 C55.3764539,23.571 52.974279,25.92 52.974279,29.556 C52.974279,33.192 55.3313002,35.64 58.5462411,35.64 C61.761182,35.64 64.0730496,33.102 64.0730496,29.556 Z" id="Shape" fill="#FFFFFF"></path>
                        <path d="M75.0724823,16.236 L83.8684161,16.236 L83.8684161,21.024 L84.0580615,21.024 C85.6474704,17.865 88.3837825,16.281 92.2308747,16.281 L92.2308747,24.804 C86.8937116,24.804 84.0129078,26.622 84.0129078,32.949 L84.0129078,42.912 L75.0724823,42.912 L75.0724823,16.236 L75.0724823,16.236 Z" id="Shape" fill="#FFFFFF"></path>
                        <path d="M125.482033,39.42 L125.337541,39.42 C123.459149,42.345 121.111158,43.587 117.598203,43.587 C111.159291,43.587 105.298345,38.268 105.298345,29.601 C105.298345,20.934 110.870307,15.57 117.598203,15.57 C120.867329,15.57 123.413995,16.767 125.19305,19.26 L125.337541,19.26 L125.337541,16.29 L134.277967,16.29 L134.277967,42.921 L125.482033,42.921 L125.482033,39.42 Z M125.337541,29.556 C125.337541,25.92 122.98052,23.571 119.810733,23.571 C116.640946,23.571 114.238771,25.92 114.238771,29.556 C114.238771,33.192 116.595792,35.64 119.810733,35.64 C123.025674,35.64 125.337541,33.102 125.337541,29.556 Z" id="Shape" fill="#FFFFFF"></path>
                        <path d="M136.490496,16.236 L145.28643,16.236 L145.28643,19.251 L145.476076,19.251 C147.155792,16.713 149.557967,15.561 153.260567,15.561 C159.744634,15.561 163.501418,19.773 163.501418,26.244 L163.501418,42.912 L154.560993,42.912 L154.560993,29.691 C154.560993,26.289 153.359905,23.562 150.045626,23.562 C146.966147,23.562 145.430922,25.956 145.430922,30.222 L145.430922,42.912 L136.490496,42.912 L136.490496,16.236 L136.490496,16.236 Z" id="Shape" fill="#FFFFFF"></path>
                        <path d="M173.832577,31.374 C174.410544,34.533 176.379243,36.162 178.971064,36.162 C181.084255,36.162 182.86331,34.92 183.585768,32.949 L190.602648,35.532 C189.446714,39.6 185.120993,43.578 178.636927,43.578 C170.229314,43.578 164.846998,38.115 164.846998,29.493 C164.846998,21.447 170.184161,15.552 178.347943,15.552 C186.511726,15.552 191.279953,21.537 191.279953,28.962 C191.279953,29.772 191.234799,30.735 191.036123,31.356 L173.832577,31.356 L173.832577,31.374 Z M173.87773,26.676 L182.484019,26.676 C182.384681,24.381 180.704965,22.653 178.347943,22.653 C175.990922,22.653 174.500851,24.183 173.87773,26.676 Z" id="Shape" fill="#FFFFFF"></path>
                        <path d="M94.3079433,9.63 C94.3079433,7.137 96.3759811,5.031 98.9226478,5.031 C101.469314,5.031 103.537352,7.137 103.537352,9.63 C103.537352,12.123 101.469314,14.229 98.9226478,14.229 C96.3759811,14.229 94.3079433,12.168 94.3079433,9.63" id="Shape" fill="#FFFFFF"></path>
                        <path d="M94.452435,43.029 C94.452435,44.928 94.3982506,47.007 91.273617,47.007 L90.090591,47.007 L90.090591,52.974 L92.2940898,52.974 C102.101466,52.974 103.392861,48.852 103.392861,42.741 L103.392861,16.281 L94.452435,16.281 L94.452435,43.02 L94.452435,43.029 Z" id="Shape" fill="#FFFFFF"></path>
                        <path d="M33.738818,15.624 C31.5714421,20.358 26.7851537,23.652 21.2222222,23.652 C15.6592908,23.652 11.2884161,20.637 9.00364066,16.236 L0,16.236 L0,42.912 L9.09394799,42.912 L9.09394799,29.493 C9.09394799,27.441 10.7646336,25.767 12.8326714,25.767 C14.9007092,25.767 16.5713948,27.432 16.5713948,29.493 L16.5713948,42.912 L25.8730496,42.912 L25.8730496,29.493 C25.8730496,27.441 27.5437352,25.767 29.611773,25.767 C31.6798109,25.767 33.3504965,27.432 33.3504965,29.493 L33.3504965,42.912 L42.4444444,42.912 L42.4444444,26.244 C42.4444444,20.214 39.3469031,16.146 33.738818,15.624" id="Shape" fill="#FFFFFF"></path>
                        <path d="M31.2102128,9.954 C31.2102128,15.453 26.74,19.908 21.2222222,19.908 C15.7044444,19.908 11.2342317,15.453 11.2342317,9.954 C11.2342317,4.455 15.7044444,0 21.2222222,0 C26.74,0 31.2102128,4.455 31.2102128,9.954" id="Shape" fill="#00AFAB"></path>
                        <path d="M228.738818,15.624 C226.571442,20.358 221.785154,23.652 216.222222,23.652 C210.659291,23.652 206.288416,20.637 204.003641,16.236 L195,16.236 L195,42.912 L204.093948,42.912 L204.093948,29.493 C204.093948,27.441 205.764634,25.767 207.832671,25.767 C209.900709,25.767 211.571395,27.432 211.571395,29.493 L211.571395,42.912 L220.87305,42.912 L220.87305,29.493 C220.87305,27.441 222.543735,25.767 224.611773,25.767 C226.679811,25.767 228.350496,27.432 228.350496,29.493 L228.350496,42.912 L237.444444,42.912 L237.444444,26.244 C237.444444,20.214 234.346903,16.146 228.738818,15.624" id="Shape-Copy-2" fill="#FFFFFF"></path>
                        <path d="M226.210213,9.954 C226.210213,15.453 221.74,19.908 216.222222,19.908 C210.704444,19.908 206.234232,15.453 206.234232,9.954 C206.234232,4.455 210.704444,0 216.222222,0 C221.74,0 226.210213,4.455 226.210213,9.954" id="Shape-Copy" fill="#00AFAB"></path>
                        <path d="M259.01948,39.42 L258.874988,39.42 C256.996596,42.345 254.648605,43.587 251.13565,43.587 C244.696738,43.587 238.835792,38.268 238.835792,29.601 C238.835792,20.934 244.407754,15.57 251.13565,15.57 C254.404775,15.57 256.951442,16.767 258.730496,19.26 L258.874988,19.26 L258.874988,16.29 L267.815414,16.29 L267.815414,42.921 L259.01948,42.921 L259.01948,39.42 Z M258.874988,29.556 C258.874988,25.92 256.517967,23.571 253.34818,23.571 C250.178392,23.571 247.776217,25.92 247.776217,29.556 C247.776217,33.192 250.133239,35.64 253.34818,35.64 C256.563121,35.64 258.874988,33.102 258.874988,29.556 Z" id="Shape" fill="#FFFFFF"></path>
                    </g>
                </g>
            </g>
        </g>
    </g>
</svg>